<?xml version="1.0" encoding="UTF-8" standalone="no" ?>
<!DOCTYPE svg PUBLIC "-//W3C//DTD SVG 1.1//EN" "http://www.w3.org/Graphics/SVG/1.1/DTD/svg11.dtd">
<svg xmlns="http://www.w3.org/2000/svg" xmlns:xlink="http://www.w3.org/1999/xlink" version="1.1" width="1024" height="1024" viewBox="0 0 1024 1024" xml:space="preserve">
<desc>Created with Fabric.js 3.1.0</desc>
<defs>
</defs>
<g transform="matrix(1 0 0 1 512 512)" id="background-logo"  >
<rect style="stroke: none; stroke-width: 1; stroke-dasharray: none; stroke-linecap: butt; stroke-dashoffset: 0; stroke-linejoin: miter; stroke-miterlimit: 4; fill: rgb(106,90,205); fill-rule: nonzero; opacity: 1;"  paint-order="stroke"  x="-512" y="-512" rx="0" ry="0" width="1024" height="1024" />
</g>
<g transform="matrix(1.5745007680491552 0 0 1.5745007680491552 530.5231319801514 408.79977031111207)" style="" id="logo-logo"  >
	<g transform="matrix(0.25 0 0 -0.25 43.52721061672014 42.52134119120686)" id="path28"  >
<linearGradient id="SVGID_25952" gradientUnits="userSpaceOnUse" gradientTransform="matrix(-660.057 -928.207 -473.096 336.423 2319.74 1532.52)"  x1="0" y1="0" x2="1" y2="0">
<stop offset="0%" style="stop-color:rgb(255,255,255);stop-opacity: 1"/>
<stop offset="100%" style="stop-color:rgb(35,31,32);stop-opacity: 1"/>
</linearGradient>
<path style="stroke: none; stroke-width: 1; stroke-dasharray: none; stroke-linecap: butt; stroke-dashoffset: 0; stroke-linejoin: miter; stroke-miterlimit: 4; fill: url(#SVGID_25952); fill-rule: nonzero; opacity: 1;"  paint-order="stroke"  transform=" translate(-1800.9650000000001, -1131.1174397058512)" d="m 2253.36 1473.7 c -269.49 -131.22 -569.77 -297.49 -654.14 -478.641 c -63.27 -135.817 39.7 -186.121 198.53 -156.348 c -183.65 -84.375 -449.18 -71.969 -449.18 111.68 c 0 183.639 546.42 470.889 904.79 523.309" stroke-linecap="round" />
</g>
	<g transform="matrix(0.25 0 0 -0.25 -25.36076143958013 -82.86088302319385)" id="path44"  >
<linearGradient id="SVGID_25953" gradientUnits="userSpaceOnUse" gradientTransform="matrix(-494.43 313.041 315.875 498.904 1640.43 1210.81)"  x1="0" y1="0" x2="1" y2="0">
<stop offset="0%" style="stop-color:rgb(255,255,255);stop-opacity: 1"/>
<stop offset="100%" style="stop-color:rgb(35,31,32);stop-opacity: 1"/>
</linearGradient>
<path style="stroke: none; stroke-width: 1; stroke-dasharray: none; stroke-linecap: butt; stroke-dashoffset: 0; stroke-linejoin: miter; stroke-miterlimit: 4; fill: url(#SVGID_25953); fill-rule: nonzero; opacity: 1;"  paint-order="stroke"  transform=" translate(-1524.208732626313, -1622.2912267850497)" d="m 1820.07 1588.18 c -146.41 42.19 -506.24 46.99 -498.8 -54.68 c 7.45 -101.67 -176.2 42.26 -79.41 129.12 c 96.77 86.86 396.94 88.44 517.36 80.21 c 120.41 -8.24 60.85 -154.65 60.85 -154.65" stroke-linecap="round" />
</g>
	<g transform="matrix(0.25 0 0 -0.25 -38.47542866891291 -15.990311266011332)" id="path60"  >
<linearGradient id="SVGID_25954" gradientUnits="userSpaceOnUse" gradientTransform="matrix(-1085.32 29.7789 11.2408 409.68 1714.7 1149.93)"  x1="0" y1="0" x2="1" y2="0">
<stop offset="0%" style="stop-color:rgb(255,255,255);stop-opacity: 1"/>
<stop offset="100%" style="stop-color:rgb(35,31,32);stop-opacity: 1"/>
</linearGradient>
<path style="stroke: none; stroke-width: 1; stroke-dasharray: none; stroke-linecap: butt; stroke-dashoffset: 0; stroke-linejoin: miter; stroke-miterlimit: 4; fill: url(#SVGID_25954); fill-rule: nonzero; opacity: 1;"  paint-order="stroke"  transform=" translate(-1467.9595, -1359.9650000000001)" d="m 986.719 1229.13 l 126.081 -42.68 c 0 0 329.39 267.53 836.4 347.03 c 0 0 -658.42 -23.11 -962.481 -304.35" stroke-linecap="round" />
</g>
	<g transform="matrix(0.25 0 0 -0.25 -38.852006708531235 -72.63335513883422)" id="path80"  >
<linearGradient id="SVGID_25955" gradientUnits="userSpaceOnUse" gradientTransform="matrix(1450.85 564.219 243.136 -625.208 599.766 1707)"  x1="0" y1="0" x2="1" y2="0">
<stop offset="0%" style="stop-color:rgb(225,29,37);stop-opacity: 1"/>
<stop offset="45.2866%" style="stop-color:rgb(177,29,35);stop-opacity: 1"/>
<stop offset="64.0282%" style="stop-color:rgb(177,29,35);stop-opacity: 1"/>
<stop offset="100%" style="stop-color:rgb(71,37,23);stop-opacity: 1"/>
</linearGradient>
<path style="stroke: none; stroke-width: 1; stroke-dasharray: none; stroke-linecap: butt; stroke-dashoffset: 0; stroke-linejoin: miter; stroke-miterlimit: 4; fill: url(#SVGID_25955); fill-rule: nonzero; opacity: 1;"  paint-order="stroke"  transform=" translate(-1465.9770000000003, -1588.1699999999998)" d="m 1949.2 1533.48 c -203.88 -20.84 -463.37 -79 -711.13 -181.45 c -86.18 -35.57 -170.94 -76.44 -251.351 -122.9 c -2.567 23.23 -3.965 46.85 -3.965 70.86 c 0 357.37 289.856 647.22 647.196 647.22 c 116.16 0 225.14 -30.57 319.25 -84.16 l -189.98 -189.22 c -35.54 12.52 -73.46 19.85 -112.97 21.44 c -105.01 9.78 -224.08 -4.52 -326.88 -45.22 c -68.26 -27.01 -54.49 -91.96 16.77 -85.42 c 216 19.85 481.05 4.96 613.06 -31.15" stroke-linecap="round" />
</g>
	<g transform="matrix(0.25 0 0 -0.25 7.93025670853126 59.7794801388342)" id="path100"  >
<linearGradient id="SVGID_25956" gradientUnits="userSpaceOnUse" gradientTransform="matrix(1450.86 564.223 291.582 -749.781 848.76 1066.7)"  x1="0" y1="0" x2="1" y2="0">
<stop offset="0%" style="stop-color:rgb(97,204,245);stop-opacity: 1"/>
<stop offset="35.7442%" style="stop-color:rgb(53,128,203);stop-opacity: 1"/>
<stop offset="57.7545%" style="stop-color:rgb(53,128,203);stop-opacity: 1"/>
<stop offset="100%" style="stop-color:rgb(36,38,93);stop-opacity: 1"/>
</linearGradient>
<path style="stroke: none; stroke-width: 1; stroke-dasharray: none; stroke-linecap: butt; stroke-dashoffset: 0; stroke-linejoin: miter; stroke-miterlimit: 4; fill: url(#SVGID_25956); fill-rule: nonzero; opacity: 1;"  paint-order="stroke"  transform=" translate(-1660.3400000000001, -1063.2445)" d="m 2267.25 1186.45 c -53.6 -303.384 -318.43 -533.661 -637.3 -533.661 c -251.72 0 -469.72 143.539 -576.52 353.401 c 55.39 49.02 126.86 99.65 208.86 148.68 c 207.85 124.69 483.03 239.04 735.56 290.25 c 89.34 18.27 175.9 28.58 255.51 28.58 c -84.97 -26.38 -164.2 -56.38 -237.25 -88.33 c -239.13 -104.52 -407.91 -207.19 -504.98 -314.2 c -125.34 -138.147 -30.86 -245.178 63.38 -250.932 c 184.71 -11.3 356.89 174.211 419.16 324.102 c 5.57 12.72 10.31 25.83 14.31 38.93 c 0.39 1.19 0.79 2.37 1.19 3.58 l 258.08 -0.4" stroke-linecap="round" />
</g>
	<g transform="matrix(0.25 0 0 -0.25 61.44824675659362 -106.81829590151332)" id="path116"  >
<linearGradient id="SVGID_25957" gradientUnits="userSpaceOnUse" gradientTransform="matrix(-47.1511 -516.177 -249.051 22.75 2018.96 1987.87)"  x1="0" y1="0" x2="1" y2="0">
<stop offset="0%" style="stop-color:rgb(255,255,255);stop-opacity: 1"/>
<stop offset="100%" style="stop-color:rgb(35,31,32);stop-opacity: 1"/>
</linearGradient>
<path style="stroke: none; stroke-width: 1; stroke-dasharray: none; stroke-linecap: butt; stroke-dashoffset: 0; stroke-linejoin: miter; stroke-miterlimit: 4; fill: url(#SVGID_25957); fill-rule: nonzero; opacity: 1;"  paint-order="stroke"  transform=" translate(-1869.065, -1725.6149999999998)" d="m 1949.2 1863.05 l 29.71 -93.71 l -158.84 -181.16 l -60.85 85.65 l 189.98 189.22" stroke-linecap="round" />
</g>
</g>
<g transform="matrix(1.5745007680491552 0 0 1.5745007680491552 513.5205603991496 741.327478376218)"  >
<filter id="SVGID_25958" y="-20%" height="140%" x="-20%" width="140%" >
	<feGaussianBlur in="SourceAlpha" stdDeviation="0"></feGaussianBlur>
	<feOffset dx="0" dy="0" result="oBlur" ></feOffset>
	<feFlood flood-color="rgb(0,0,0)" flood-opacity="1"/>
	<feComposite in2="oBlur" operator="in" />
	<feMerge>
		<feMergeNode></feMergeNode>
		<feMergeNode in="SourceGraphic"></feMergeNode>
	</feMerge>
</filter>
<path style="stroke: rgb(255,255,255); stroke-width: 0; stroke-dasharray: none; stroke-linecap: butt; stroke-dashoffset: 0; stroke-linejoin: miter; stroke-miterlimit: 4; fill: rgb(255,255,255); fill-rule: nonzero; opacity: 1;filter: url(#SVGID_25958);"  paint-order="stroke"  transform=" translate(-111.95500000000001, 18.57)" d="M 4.57 -1.76 L 4.57 -1.76 Q 4.57 -2.81 6.88 -4.02 Q 9.18 -5.23 9.8 -7.93 Q 10.43 -10.63 10.43 -26.88 Q 10.43 -43.13 9.82 -45.84 Q 9.22 -48.55 7.73 -49.53 L 7.73 -49.53 Q 4.69 -51.52 4.69 -52.07 L 4.69 -52.07 Q 4.69 -53.24 6.74 -53.61 Q 8.79 -53.98 19.45 -53.98 L 19.45 -53.98 L 23.44 -54.02 L 25.47 -54.02 Q 33.13 -53.98 38.13 -52.19 L 38.13 -52.19 Q 48.01 -48.59 51.99 -38.95 L 51.99 -38.95 Q 54.1 -33.71 54.1 -27.81 L 54.1 -27.81 L 54.1 -26.72 Q 54.1 -21.02 51.99 -15.78 L 51.99 -15.78 Q 47.81 -5.43 37.23 -1.68 L 37.23 -1.68 Q 32.5 0 25.59 0 L 25.59 0 L 24.57 0 L 23.59 -0.04 L 20.63 -0.04 L 18.71 -0.08 L 16.76 -0.08 Q 4.57 -0.08 4.57 -1.76 Z M 19.18 -45.04 L 19.18 -38.79 L 19.22 -38.16 Q 19.22 -37.23 19.22 -36.29 L 19.22 -36.29 L 19.26 -35 L 19.26 -27.38 Q 19.26 -8.59 19.61 -7.19 L 19.61 -7.19 Q 20.31 -4.38 25.86 -4.38 L 25.86 -4.38 L 27.11 -4.38 Q 34.53 -4.38 39.1 -9.92 L 39.1 -9.92 Q 41.37 -12.66 42.73 -16.91 Q 44.1 -21.17 44.1 -26.17 L 44.1 -26.17 L 44.1 -27.66 Q 44.1 -37.27 39.3 -43.48 Q 34.49 -49.69 26.48 -49.69 L 26.48 -49.69 L 25.23 -49.69 Q 21.21 -49.69 20.2 -48.73 Q 19.18 -47.77 19.18 -45.04 L 19.18 -45.04 Z M 61.8 -1.52 L 61.8 -1.52 Q 61.8 -2.42 63.87 -3.61 Q 65.94 -4.8 66.56 -7.13 Q 67.19 -9.45 67.19 -14.92 L 67.19 -14.92 L 67.19 -21.64 L 67.11 -25.55 Q 67.11 -30.23 63.95 -32.03 L 63.95 -32.03 Q 62.07 -33.09 62.07 -33.95 L 62.07 -33.95 Q 62.07 -34.53 63.09 -35.08 L 63.09 -35.08 Q 66.37 -36.8 72.7 -36.8 L 72.7 -36.8 L 73.2 -36.8 Q 74.96 -36.8 75.2 -34.84 L 75.2 -34.84 L 75.2 -22.97 Q 75.2 -9.88 75.74 -7.5 Q 76.29 -5.12 77.89 -4.06 L 77.89 -4.06 Q 80.43 -2.42 80.43 -1.8 L 80.43 -1.8 L 80.43 -1.41 Q 80.43 -0.12 76.72 -0.12 L 76.72 -0.12 L 76.09 -0.12 L 75.51 -0.16 L 69.02 -0.16 L 66.64 -0.12 L 64.3 -0.12 Q 61.8 -0.12 61.8 -1.52 Z M 65.94 -48.36 L 65.82 -49.14 L 65.82 -49.92 Q 65.82 -51.76 67.21 -52.91 Q 68.59 -54.06 70.39 -54.06 L 70.39 -54.06 L 71.56 -54.06 Q 73.36 -54.06 74.55 -52.87 Q 75.74 -51.68 75.74 -50 L 75.74 -50 L 75.74 -49.06 Q 75.63 -48.59 75.63 -47.99 Q 75.63 -47.38 74.41 -46.17 Q 73.2 -44.96 71.25 -44.96 L 71.25 -44.96 L 70.27 -44.96 L 70.12 -45 L 69.8 -45 Q 69.49 -45.08 69.34 -45.08 L 69.34 -45.08 Q 68.13 -45.08 67.03 -46.17 Q 65.94 -47.27 65.94 -48.36 L 65.94 -48.36 Z M 85.9 8.91 L 85.9 7.97 Q 85.9 6.21 88.42 3.05 Q 90.94 -0.12 90.94 -0.39 L 90.94 -0.39 Q 90.98 -0.7 90.12 -1.48 L 90.12 -1.48 Q 87.58 -3.91 87.58 -6.02 L 87.58 -6.02 Q 87.58 -8.05 89.02 -9.69 L 89.02 -9.69 Q 89.3 -10 90.76 -11.29 Q 92.23 -12.58 92.23 -13.16 Q 92.23 -13.75 91.56 -14.65 L 91.56 -14.65 L 90.98 -15.35 Q 88.13 -18.95 88.13 -22.42 L 88.13 -22.42 Q 88.13 -28.71 93.13 -32.73 Q 98.13 -36.76 104.84 -36.76 L 104.84 -36.76 Q 114.57 -36.76 119.73 -34.92 L 119.73 -34.92 Q 120.63 -34.61 120.63 -33.91 L 120.63 -33.91 Q 120.63 -32.85 117.93 -32.34 Q 115.23 -31.84 115.23 -30.04 L 115.23 -30.04 L 115.78 -25.23 Q 115.74 -22.03 114.41 -19.34 L 114.41 -19.34 Q 110.74 -12.03 101.05 -11.37 L 101.05 -11.37 Q 94.34 -10.9 94.34 -8.05 L 94.34 -8.05 Q 94.34 -6.48 96.43 -5.86 Q 98.52 -5.23 105.23 -4.77 L 105.23 -4.77 Q 111.99 -4.3 114.57 -3.05 L 114.57 -3.05 Q 119.88 -0.43 119.88 5.27 Q 119.88 10.98 114.84 14.55 Q 109.8 18.13 102.03 18.13 L 102.03 18.13 L 100.78 18.13 Q 94.22 18.13 90.06 15.31 Q 85.9 12.5 85.9 8.91 L 85.9 8.91 Z M 91.37 7.34 L 91.37 7.34 L 91.37 8.44 Q 91.37 10.59 94.14 12.36 Q 96.91 14.14 100.98 14.14 L 100.98 14.14 L 103.44 14.14 Q 107.77 14.14 111.17 12.17 Q 114.57 10.2 114.57 7.54 L 114.57 7.54 L 114.57 6.72 Q 114.57 4.02 111.02 2.77 L 111.02 2.77 Q 108.28 1.8 101.68 1.8 L 101.68 1.8 L 100.35 1.8 Q 96.33 1.8 94.57 2.81 L 94.57 2.81 Q 91.37 4.69 91.37 7.34 Z M 95.39 -24.73 L 95.39 -23.13 Q 95.39 -19.3 97.21 -16.7 Q 99.02 -14.1 101.8 -14.1 L 101.8 -14.1 L 102.03 -14.1 Q 104.57 -14.1 106.33 -16.37 Q 108.09 -18.63 108.09 -22.7 L 108.09 -22.7 L 108.09 -24.26 L 107.93 -26.05 Q 107.93 -28.71 106.13 -31.04 Q 104.34 -33.36 101.99 -33.36 L 101.99 -33.36 L 101.21 -33.36 Q 98.79 -33.36 97.09 -30.94 Q 95.39 -28.52 95.39 -24.73 L 95.39 -24.73 Z M 126.8 -52.58 L 126.8 -52.58 Q 126.8 -55.27 136.88 -55.27 L 136.88 -55.27 L 137.54 -55.27 Q 139.22 -55.27 139.57 -53.83 L 139.57 -53.83 L 139.57 -37.38 L 139.53 -34.92 L 139.53 -30.82 L 139.77 -22.85 Q 139.77 -14.53 141.52 -8.28 L 141.52 -8.28 Q 142.3 -5.55 143.36 -4.53 L 143.36 -4.53 Q 145.94 -2.07 145.94 -1.52 L 145.94 -1.52 Q 145.94 0.04 140.04 0.04 L 140.04 0.04 L 139.3 0.04 L 138.52 0 L 136.95 0 L 136.17 -0.04 L 134.61 -0.04 Q 128.05 -0.04 128.05 -1.56 L 128.05 -1.56 Q 128.05 -2.15 129.3 -3.26 Q 130.55 -4.38 130.9 -6.17 Q 131.25 -7.97 131.25 -12.97 L 131.25 -12.97 L 131.45 -16.88 Q 131.52 -18.44 131.52 -20.9 L 131.52 -20.9 L 131.56 -22.54 L 131.56 -29.92 Q 131.56 -44.02 131 -46.52 Q 130.43 -49.02 129.34 -50.16 L 129.34 -50.16 Q 129.06 -50.43 127.93 -51.27 Q 126.8 -52.11 126.8 -52.58 Z M 152.85 -17.27 L 152.85 -17.27 L 152.85 -19.22 Q 152.85 -22.58 154.22 -26.17 L 154.22 -26.17 Q 155.59 -29.84 158.2 -32.58 L 158.2 -32.58 Q 163.36 -38.01 171.09 -38.01 L 171.09 -38.01 L 171.21 -38.01 L 171.84 -38.01 Q 178.95 -38.01 183.91 -33.05 L 183.91 -33.05 Q 186.48 -30.47 187.83 -26.93 Q 189.18 -23.4 189.18 -20 L 189.18 -20 L 189.18 -18.05 Q 189.18 -14.69 187.81 -11.11 Q 186.45 -7.54 183.91 -4.84 L 183.91 -4.84 Q 178.67 0.7 171.41 0.7 L 171.41 0.7 L 169.53 0.7 Q 166.02 0.7 163.01 -0.74 L 163.01 -0.74 Q 156.48 -3.87 154.06 -10.63 L 154.06 -10.63 Q 152.85 -14.02 152.85 -17.27 Z M 161.29 -19.26 L 161.29 -18.75 L 161.33 -18.28 L 161.37 -17.34 Q 161.41 -16.88 161.41 -16.41 L 161.41 -16.41 Q 161.41 -11.48 164.61 -6.84 L 164.61 -6.84 Q 167.07 -3.28 170.94 -3.28 L 170.94 -3.28 L 171.37 -3.28 L 171.76 -3.32 Q 175.7 -3.32 178.05 -7.48 Q 180.39 -11.64 180.39 -17.54 L 180.39 -17.54 L 180.39 -18.52 Q 180.39 -25.04 177.7 -29.61 L 177.7 -29.61 Q 176.48 -31.68 174.63 -32.83 Q 172.77 -33.98 171.21 -33.98 L 171.21 -33.98 L 170.04 -33.98 Q 166.52 -33.98 163.96 -30.25 Q 161.41 -26.52 161.41 -21.6 L 161.41 -21.6 L 161.33 -20.66 L 161.29 -19.26 Z M 195.16 -34.06 L 195.16 -34.06 Q 195.16 -34.92 195.9 -35.39 Q 196.64 -35.86 197.64 -36.37 Q 198.63 -36.88 199.1 -37.38 Q 199.57 -37.89 200.53 -40.1 Q 201.48 -42.3 201.76 -42.81 L 201.76 -42.81 Q 203.63 -46.48 205.74 -46.48 L 205.74 -46.48 L 206.29 -46.48 Q 207.66 -46.48 208.65 -42.95 Q 209.65 -39.41 210.2 -38.83 L 210.2 -38.83 Q 211.48 -37.42 215.08 -36.91 Q 218.67 -36.41 218.67 -34.65 Q 218.67 -32.89 214.73 -32.03 Q 210.78 -31.17 209.96 -29.69 L 209.96 -29.69 Q 208.75 -27.5 208.75 -19.16 Q 208.75 -10.82 210.16 -8.38 Q 211.56 -5.94 215.51 -5.94 L 215.51 -5.94 Q 217.27 -6.17 217.7 -6.17 L 217.7 -6.17 Q 219.34 -6.17 219.34 -4.96 L 219.34 -4.96 Q 219.34 -3.32 216.05 -1.56 Q 212.77 0.2 209.8 0.2 L 209.8 0.2 Q 204.3 0.2 202.15 -4.53 L 202.15 -4.53 Q 200.74 -7.62 200.74 -17.38 Q 200.74 -27.15 200.06 -29.1 Q 199.38 -31.05 197.93 -31.88 L 197.93 -31.88 Q 195.16 -33.48 195.16 -34.06 Z" stroke-linecap="round" />
</g>
<g transform="matrix(1.5745007680491552 0 0 1.5745007680491552 513.5205603991496 846.9203540284699)"  >
<filter id="SVGID_25959" y="-20%" height="140%" x="-20%" width="140%" >
	<feGaussianBlur in="SourceAlpha" stdDeviation="0"></feGaussianBlur>
	<feOffset dx="0" dy="0" result="oBlur" ></feOffset>
	<feFlood flood-color="rgb(0,0,0)" flood-opacity="1"/>
	<feComposite in2="oBlur" operator="in" />
	<feMerge>
		<feMergeNode></feMergeNode>
		<feMergeNode in="SourceGraphic"></feMergeNode>
	</feMerge>
</filter>
<path style="stroke: none; stroke-width: 0; stroke-dasharray: none; stroke-linecap: butt; stroke-dashoffset: 0; stroke-linejoin: miter; stroke-miterlimit: 4; fill: rgb(255,255,255); fill-rule: nonzero; opacity: 1;filter: url(#SVGID_25959);"  paint-order="stroke"  transform=" translate(-111.965, 6.734999999999999)" d="M 1.41 -19.79 L 1.41 -19.79 Q 1.41 -20.21 3 -20.21 L 3 -20.21 L 3.43 -20.21 L 3.87 -20.2 L 5.57 -20.19 Q 7.88 -20.19 8.55 -20.09 Q 9.21 -20 9.21 -19.47 L 9.21 -19.47 Q 9.21 -19.28 8.47 -18.68 Q 7.73 -18.09 7.49 -17.31 L 7.49 -17.31 Q 7.06 -15.95 7.06 -13.18 L 7.06 -13.18 L 7.03 -12.3 L 7.03 -8.79 Q 7.03 -3.93 7.35 -3.08 Q 7.68 -2.24 8.25 -2 Q 8.82 -1.76 9.8 -1.76 L 9.8 -1.76 Q 12.11 -1.76 13.64 -2.59 L 13.64 -2.59 Q 14.33 -2.97 15.37 -4.17 Q 16.42 -5.38 16.79 -5.38 Q 17.15 -5.38 17.15 -4.72 L 17.15 -4.72 Q 17.15 -2.96 16.63 -1.19 L 16.63 -1.19 Q 16.45 -0.59 16.11 -0.41 L 16.11 -0.41 Q 15.45 -0.07 10.94 -0.07 L 10.94 -0.07 L 8.7 -0.04 L 6.01 -0.01 L 4.25 -0.01 Q 1.83 -0.01 1.83 -0.7 L 1.83 -0.7 Q 1.83 -1 2.47 -1.55 Q 3.11 -2.11 3.35 -2.83 Q 3.59 -3.54 3.59 -6.05 L 3.59 -6.05 L 3.62 -6.94 Q 3.65 -7.84 3.65 -8.26 L 3.65 -8.26 L 3.68 -9.13 L 3.68 -12.69 Q 3.68 -16.7 3.47 -17.46 Q 3.27 -18.22 2.34 -18.76 Q 1.41 -19.29 1.41 -19.79 Z M 20.82 -1.65 Q 19.06 -3.47 19.06 -6.49 Q 19.06 -9.51 20.8 -11.59 L 20.8 -11.59 Q 21.74 -12.71 23.03 -13.27 Q 24.33 -13.83 25.56 -13.83 L 25.56 -13.83 L 26.19 -13.83 Q 28.02 -13.83 29.44 -12.55 L 29.44 -12.55 Q 30.15 -11.92 30.58 -10.95 Q 31.01 -9.98 31.01 -9.29 L 31.01 -9.29 L 31.01 -9.01 Q 31.01 -7.85 29.56 -7.53 L 29.56 -7.53 Q 28.75 -7.35 26.18 -7.23 Q 23.61 -7.1 23.12 -6.9 L 23.12 -6.9 Q 22.34 -6.58 22.34 -5.29 Q 22.34 -4 23.47 -2.92 Q 24.59 -1.83 25.96 -1.83 Q 27.32 -1.83 28.83 -2.48 Q 30.34 -3.12 30.6 -3.12 Q 30.86 -3.12 30.86 -2.67 L 30.86 -2.67 Q 30.86 -1.8 28.74 -0.64 L 28.74 -0.64 Q 27.23 0.18 25.5 0.18 L 25.5 0.18 L 25.18 0.18 Q 22.59 0.18 20.82 -1.65 Z M 22.28 -9.21 L 22.28 -8.98 Q 22.28 -8.47 24.13 -8.47 L 24.13 -8.47 L 24.46 -8.47 L 24.55 -8.48 L 26.76 -8.57 L 27.1 -8.6 Q 28.07 -8.6 28.07 -9.35 L 28.07 -9.35 L 28.07 -9.43 L 28.05 -9.51 Q 28.05 -10.58 27.28 -11.46 Q 26.51 -12.33 25.28 -12.33 L 25.28 -12.33 L 25.2 -12.33 Q 23.98 -12.33 23.13 -11.37 Q 22.28 -10.4 22.28 -9.21 L 22.28 -9.21 Z M 33.63 -3.11 L 33.63 -3.11 L 33.63 -3.43 Q 33.63 -6.47 39.07 -7.81 L 39.07 -7.81 Q 40.3 -8.12 40.63 -8.32 L 40.63 -8.32 Q 41.35 -8.76 41.35 -9.81 Q 41.35 -10.85 40.8 -11.48 Q 40.24 -12.1 39.07 -12.1 Q 37.91 -12.1 36.92 -10.91 Q 35.93 -9.71 35.2 -9.71 L 35.2 -9.71 Q 34.29 -9.71 34.29 -10.65 L 34.29 -10.65 Q 34.29 -11.89 35.99 -12.85 Q 37.69 -13.81 39.48 -13.81 Q 41.28 -13.81 42.24 -13.31 Q 43.2 -12.8 43.77 -11.89 Q 44.34 -10.99 44.34 -7.17 Q 44.34 -3.35 44.57 -2.77 Q 44.79 -2.18 45.35 -2.02 L 45.35 -2.02 Q 46.36 -1.73 46.36 -1.51 L 46.36 -1.51 Q 46.36 -1.01 45.49 -0.49 Q 44.62 0.03 43.76 0.03 Q 42.91 0.03 42.23 -0.55 Q 41.56 -1.13 41.37 -1.13 Q 41.19 -1.13 39.81 -0.45 Q 38.42 0.22 37.02 0.22 Q 35.61 0.22 34.62 -0.8 Q 33.63 -1.82 33.63 -3.11 Z M 36.56 -3.75 L 36.56 -3.33 Q 36.56 -2.68 37.04 -2.13 Q 37.51 -1.58 38.31 -1.58 L 38.31 -1.58 L 38.48 -1.58 L 38.55 -1.6 Q 39.54 -1.6 40.43 -2.37 L 40.43 -2.37 Q 41.31 -3.15 41.31 -3.97 L 41.31 -3.97 Q 41.37 -4.26 41.37 -4.47 L 41.37 -4.47 L 41.38 -4.64 L 41.41 -5.33 L 41.41 -6.09 Q 41.41 -6.83 40.94 -6.83 L 40.94 -6.83 L 40.87 -6.81 L 40.8 -6.81 Q 39.64 -6.81 37.79 -5.79 L 37.79 -5.79 Q 36.56 -5.1 36.56 -3.75 L 36.56 -3.75 Z M 49.86 0.01 Q 48.4 0.01 48.4 -0.43 Q 48.4 -0.88 49.1 -1.35 Q 49.8 -1.82 50.02 -2.37 Q 50.23 -2.93 50.23 -4.85 L 50.23 -4.85 L 50.23 -7.38 L 50.2 -8.64 Q 50.2 -10.12 49.95 -10.72 Q 49.7 -11.31 49.15 -11.79 Q 48.59 -12.28 48.59 -12.5 Q 48.59 -12.71 48.87 -12.89 L 48.87 -12.89 Q 49.85 -13.51 51.87 -13.51 L 51.87 -13.51 L 52.37 -13.51 Q 53.01 -13.51 53.28 -12.58 Q 53.55 -11.66 53.92 -11.66 L 53.92 -11.66 Q 54.04 -11.66 54.55 -12.11 Q 55.06 -12.57 55.3 -12.74 L 55.3 -12.74 Q 56.24 -13.43 57.07 -13.43 Q 57.91 -13.43 58.42 -12.96 Q 58.93 -12.5 58.93 -11.94 L 58.93 -11.94 L 58.93 -11.7 Q 58.93 -11.28 58.6 -10.86 Q 58.27 -10.44 57.7 -10.44 L 57.7 -10.44 Q 57.6 -10.44 56.86 -10.73 Q 56.12 -11.02 55.66 -11.02 Q 55.2 -11.02 54.63 -10.58 Q 54.07 -10.15 53.66 -9.18 Q 53.26 -8.2 53.26 -5.83 Q 53.26 -3.46 53.56 -2.79 Q 53.86 -2.12 54.62 -1.43 Q 55.39 -0.73 55.39 -0.63 L 55.39 -0.63 Q 55.39 0 51.08 0 L 51.08 0 L 50.46 0 L 49.86 0.01 Z M 61 -1.05 L 61 -1.05 Q 61 -1.35 61.72 -1.82 Q 62.45 -2.29 62.6 -2.9 Q 62.75 -3.52 62.75 -6.68 Q 62.75 -9.84 62.55 -10.75 Q 62.34 -11.66 62.08 -11.94 L 62.08 -11.94 Q 61.48 -12.57 61.48 -12.72 Q 61.48 -12.88 62.02 -13.17 Q 62.56 -13.46 63.95 -13.46 Q 65.33 -13.46 65.61 -13.25 Q 65.89 -13.04 66.1 -12.38 Q 66.31 -11.72 66.62 -11.72 L 66.62 -11.72 Q 66.74 -11.72 67.46 -12.14 L 67.46 -12.14 Q 69.4 -13.3 71.24 -13.3 L 71.24 -13.3 Q 73.05 -13.3 73.96 -11.87 L 73.96 -11.87 Q 74.58 -10.9 74.58 -7.8 Q 74.58 -4.7 74.83 -3.79 Q 75.09 -2.87 75.45 -2.56 L 75.45 -2.56 Q 76.36 -1.79 76.36 -1.61 L 76.36 -1.61 Q 76.36 -1.01 75.14 -0.7 Q 73.92 -0.4 72.52 -0.4 Q 71.13 -0.4 71.13 -0.67 L 71.13 -0.67 Q 71.13 -0.81 71.29 -1.12 Q 71.46 -1.44 71.57 -1.77 Q 71.69 -2.11 71.69 -2.97 Q 71.69 -3.82 71.7 -4.25 L 71.7 -4.25 L 71.7 -5.58 Q 71.7 -9.11 70.95 -10.39 Q 70.2 -11.67 68.47 -11.67 L 68.47 -11.67 Q 67.88 -11.67 67.19 -11.32 Q 66.49 -10.96 66.09 -10.29 Q 65.7 -9.62 65.7 -6.67 Q 65.7 -3.71 65.89 -2.71 Q 66.08 -1.71 66.62 -1.08 L 66.62 -1.08 Q 66.77 -0.88 66.77 -0.69 L 66.77 -0.69 Q 66.77 -0.1 64.6 -0.1 L 64.6 -0.1 L 64.17 -0.12 L 63.76 -0.12 Q 61.93 -0.12 61.46 -0.3 Q 61 -0.48 61 -1.05 Z M 78.66 -0.57 L 78.66 -0.57 Q 78.66 -0.91 79.44 -1.35 Q 80.21 -1.8 80.45 -2.67 Q 80.68 -3.54 80.68 -5.6 L 80.68 -5.6 L 80.68 -8.12 L 80.65 -9.58 Q 80.65 -11.34 79.47 -12.01 L 79.47 -12.01 Q 78.76 -12.41 78.76 -12.73 L 78.76 -12.73 Q 78.76 -12.95 79.15 -13.15 L 79.15 -13.15 Q 80.38 -13.8 82.75 -13.8 L 82.75 -13.8 L 82.94 -13.8 Q 83.6 -13.8 83.69 -13.07 L 83.69 -13.07 L 83.69 -8.61 Q 83.69 -3.71 83.89 -2.81 Q 84.1 -1.92 84.7 -1.52 L 84.7 -1.52 Q 85.65 -0.91 85.65 -0.67 L 85.65 -0.67 L 85.65 -0.53 Q 85.65 -0.04 84.26 -0.04 L 84.26 -0.04 L 84.02 -0.04 L 83.8 -0.06 L 81.37 -0.06 L 80.48 -0.04 L 79.6 -0.04 Q 78.66 -0.04 78.66 -0.57 Z M 80.21 -18.13 L 80.17 -18.43 L 80.17 -18.72 Q 80.17 -19.41 80.69 -19.84 Q 81.21 -20.27 81.88 -20.27 L 81.88 -20.27 L 82.32 -20.27 Q 83 -20.27 83.44 -19.83 Q 83.89 -19.38 83.89 -18.75 L 83.89 -18.75 L 83.89 -18.4 Q 83.85 -18.22 83.85 -18 Q 83.85 -17.77 83.39 -17.31 Q 82.94 -16.86 82.21 -16.86 L 82.21 -16.86 L 81.84 -16.86 L 81.78 -16.88 L 81.67 -16.88 Q 81.55 -16.9 81.49 -16.9 L 81.49 -16.9 Q 81.04 -16.9 80.63 -17.31 Q 80.21 -17.72 80.21 -18.13 L 80.21 -18.13 Z M 87.74 -1.05 L 87.74 -1.05 Q 87.74 -1.35 88.47 -1.82 Q 89.19 -2.29 89.35 -2.9 Q 89.5 -3.52 89.5 -6.68 Q 89.5 -9.84 89.3 -10.75 Q 89.09 -11.66 88.83 -11.94 L 88.83 -11.94 Q 88.23 -12.57 88.23 -12.72 Q 88.23 -12.88 88.77 -13.17 Q 89.31 -13.46 90.7 -13.46 Q 92.08 -13.46 92.36 -13.25 Q 92.64 -13.04 92.85 -12.38 Q 93.06 -11.72 93.37 -11.72 L 93.37 -11.72 Q 93.49 -11.72 94.2 -12.14 L 94.2 -12.14 Q 96.15 -13.3 97.98 -13.3 L 97.98 -13.3 Q 99.8 -13.3 100.71 -11.87 L 100.71 -11.87 Q 101.32 -10.9 101.32 -7.8 Q 101.32 -4.7 101.58 -3.79 Q 101.84 -2.87 102.2 -2.56 L 102.2 -2.56 Q 103.11 -1.79 103.11 -1.61 L 103.11 -1.61 Q 103.11 -1.01 101.89 -0.7 Q 100.66 -0.4 99.27 -0.4 Q 97.88 -0.4 97.88 -0.67 L 97.88 -0.67 Q 97.88 -0.81 98.04 -1.12 Q 98.2 -1.44 98.32 -1.77 Q 98.44 -2.11 98.44 -2.97 Q 98.44 -3.82 98.45 -4.25 L 98.45 -4.25 L 98.45 -5.58 Q 98.45 -9.11 97.7 -10.39 Q 96.94 -11.67 95.21 -11.67 L 95.21 -11.67 Q 94.63 -11.67 93.93 -11.32 Q 93.24 -10.96 92.84 -10.29 Q 92.45 -9.62 92.45 -6.67 Q 92.45 -3.71 92.64 -2.71 Q 92.83 -1.71 93.37 -1.08 L 93.37 -1.08 Q 93.52 -0.88 93.52 -0.69 L 93.52 -0.69 Q 93.52 -0.1 91.35 -0.1 L 91.35 -0.1 L 90.92 -0.12 L 90.51 -0.12 Q 88.68 -0.12 88.21 -0.3 Q 87.74 -0.48 87.74 -1.05 Z M 105.28 3.34 L 105.28 2.99 Q 105.28 2.33 106.22 1.14 Q 107.17 -0.04 107.17 -0.15 L 107.17 -0.15 Q 107.18 -0.26 106.86 -0.56 L 106.86 -0.56 Q 105.91 -1.46 105.91 -2.26 L 105.91 -2.26 Q 105.91 -3.02 106.45 -3.63 L 106.45 -3.63 Q 106.55 -3.75 107.1 -4.23 Q 107.65 -4.72 107.65 -4.94 Q 107.65 -5.16 107.4 -5.49 L 107.4 -5.49 L 107.18 -5.76 Q 106.11 -7.1 106.11 -8.41 L 106.11 -8.41 Q 106.11 -10.77 107.99 -12.28 Q 109.86 -13.78 112.38 -13.78 L 112.38 -13.78 Q 116.03 -13.78 117.96 -13.1 L 117.96 -13.1 Q 118.3 -12.98 118.3 -12.71 L 118.3 -12.71 Q 118.3 -12.32 117.29 -12.13 Q 116.28 -11.94 116.28 -11.26 L 116.28 -11.26 L 116.48 -9.46 Q 116.47 -8.26 115.97 -7.25 L 115.97 -7.25 Q 114.59 -4.51 110.96 -4.26 L 110.96 -4.26 Q 108.44 -4.09 108.44 -3.02 L 108.44 -3.02 Q 108.44 -2.43 109.23 -2.2 Q 110.01 -1.96 112.53 -1.79 L 112.53 -1.79 Q 115.06 -1.61 116.03 -1.14 L 116.03 -1.14 Q 118.02 -0.16 118.02 1.98 Q 118.02 4.12 116.13 5.46 Q 114.24 6.8 111.33 6.8 L 111.33 6.8 L 110.86 6.8 Q 108.4 6.8 106.84 5.74 Q 105.28 4.69 105.28 3.34 L 105.28 3.34 Z M 107.33 2.75 L 107.33 2.75 L 107.33 3.16 Q 107.33 3.97 108.37 4.64 Q 109.41 5.3 110.93 5.3 L 110.93 5.3 L 111.86 5.3 Q 113.48 5.3 114.76 4.56 Q 116.03 3.82 116.03 2.83 L 116.03 2.83 L 116.03 2.52 Q 116.03 1.51 114.7 1.04 L 114.7 1.04 Q 113.67 0.67 111.2 0.67 L 111.2 0.67 L 110.7 0.67 Q 109.19 0.67 108.53 1.05 L 108.53 1.05 Q 107.33 1.76 107.33 2.75 Z M 108.84 -9.27 L 108.84 -8.67 Q 108.84 -7.24 109.52 -6.26 Q 110.2 -5.29 111.24 -5.29 L 111.24 -5.29 L 111.33 -5.29 Q 112.28 -5.29 112.94 -6.14 Q 113.6 -6.99 113.6 -8.51 L 113.6 -8.51 L 113.6 -9.1 L 113.54 -9.77 Q 113.54 -10.77 112.87 -11.64 Q 112.19 -12.51 111.31 -12.51 L 111.31 -12.51 L 111.02 -12.51 Q 110.11 -12.51 109.48 -11.6 Q 108.84 -10.69 108.84 -9.27 L 108.84 -9.27 Z M 129.27 -19.42 L 129.27 -19.42 Q 129.27 -19.86 129.71 -20.03 Q 130.15 -20.2 132.79 -20.2 L 132.79 -20.2 L 134.08 -20.2 Q 136.2 -20.2 136.2 -19.63 L 136.2 -19.63 Q 136.2 -19.56 135.64 -18.84 Q 135.09 -18.12 134.8 -17.04 Q 134.52 -15.95 134.52 -12.86 L 134.52 -12.86 Q 134.52 -11.35 135.13 -11.35 L 135.13 -11.35 Q 135.4 -11.35 136 -11.79 L 136 -11.79 Q 137.36 -12.77 139.58 -15.53 L 139.58 -15.53 Q 140.99 -17.26 140.99 -18.46 L 140.99 -18.46 L 140.93 -18.85 L 140.8 -19.2 L 140.73 -19.51 Q 140.73 -20.2 142.53 -20.2 L 142.53 -20.2 L 143.16 -20.2 Q 146.34 -20.2 146.34 -19.57 L 146.34 -19.57 Q 146.34 -19.2 145.17 -18.39 Q 143.99 -17.58 142.65 -16.23 L 142.65 -16.23 Q 139.03 -12.61 139.03 -11.78 Q 139.03 -10.94 139.5 -10.25 L 139.5 -10.25 Q 141.39 -7.47 143.31 -5.08 Q 145.24 -2.7 145.74 -2.26 Q 146.25 -1.82 146.89 -1.35 Q 147.52 -0.89 147.52 -0.76 L 147.52 -0.76 Q 147.52 -0.06 145.11 -0.06 Q 142.69 -0.06 141.97 -0.31 L 141.97 -0.31 Q 140.92 -0.67 140.92 -1.92 Q 140.92 -3.16 139.41 -5.45 Q 137.9 -7.73 136.9 -8.51 L 136.9 -8.51 Q 136.35 -8.95 136.08 -8.95 L 136.08 -8.95 Q 134.65 -8.95 134.65 -5.48 L 134.65 -5.48 Q 134.65 -3.53 134.9 -2.77 Q 135.15 -2.01 135.59 -1.35 Q 136.03 -0.7 136.03 -0.67 L 136.03 -0.67 Q 136.03 -0.04 134.08 -0.04 L 134.08 -0.04 L 131.5 -0.04 Q 129.76 -0.04 129.4 -0.5 L 129.4 -0.5 L 129.3 -0.82 Q 129.3 -1 129.99 -1.54 Q 130.68 -2.08 130.94 -2.62 Q 131.21 -3.16 131.21 -6.31 L 131.21 -6.31 L 131.18 -9.07 L 131.13 -11.1 Q 131.1 -12.45 131.1 -14.76 Q 131.1 -17.07 130.88 -17.59 Q 130.66 -18.11 130.25 -18.46 L 130.25 -18.46 Q 129.27 -19.28 129.27 -19.42 Z M 149.47 -6.47 L 149.47 -6.47 L 149.47 -7.21 Q 149.47 -8.47 149.99 -9.81 L 149.99 -9.81 Q 150.5 -11.19 151.48 -12.22 L 151.48 -12.22 Q 153.41 -14.25 156.31 -14.25 L 156.31 -14.25 L 156.36 -14.25 L 156.59 -14.25 Q 159.26 -14.25 161.12 -12.39 L 161.12 -12.39 Q 162.08 -11.43 162.59 -10.1 Q 163.1 -8.77 163.1 -7.5 L 163.1 -7.5 L 163.1 -6.77 Q 163.1 -5.51 162.58 -4.17 Q 162.07 -2.83 161.12 -1.82 L 161.12 -1.82 Q 159.16 0.26 156.43 0.26 L 156.43 0.26 L 155.73 0.26 Q 154.41 0.26 153.28 -0.28 L 153.28 -0.28 Q 150.83 -1.45 149.93 -3.98 L 149.93 -3.98 Q 149.47 -5.26 149.47 -6.47 Z M 152.64 -7.22 L 152.64 -7.03 L 152.65 -6.86 L 152.67 -6.5 Q 152.68 -6.33 152.68 -6.15 L 152.68 -6.15 Q 152.68 -4.31 153.88 -2.56 L 153.88 -2.56 Q 154.8 -1.23 156.25 -1.23 L 156.25 -1.23 L 156.42 -1.23 L 156.56 -1.25 Q 158.04 -1.25 158.92 -2.81 Q 159.8 -4.37 159.8 -6.58 L 159.8 -6.58 L 159.8 -6.94 Q 159.8 -9.39 158.79 -11.1 L 158.79 -11.1 Q 158.33 -11.88 157.64 -12.31 Q 156.94 -12.74 156.36 -12.74 L 156.36 -12.74 L 155.92 -12.74 Q 154.6 -12.74 153.64 -11.35 Q 152.68 -9.95 152.68 -8.1 L 152.68 -8.1 L 152.65 -7.75 L 152.64 -7.22 Z M 166.95 0.01 Q 165.48 0.01 165.48 -0.43 Q 165.48 -0.88 166.19 -1.35 Q 166.89 -1.82 167.1 -2.37 Q 167.31 -2.93 167.31 -4.85 L 167.31 -4.85 L 167.31 -7.38 L 167.29 -8.64 Q 167.29 -10.12 167.04 -10.72 Q 166.79 -11.31 166.23 -11.79 Q 165.67 -12.28 165.67 -12.5 Q 165.67 -12.71 165.95 -12.89 L 165.95 -12.89 Q 166.93 -13.51 168.96 -13.51 L 168.96 -13.51 L 169.45 -13.51 Q 170.1 -13.51 170.37 -12.58 Q 170.64 -11.66 171.01 -11.66 L 171.01 -11.66 Q 171.12 -11.66 171.64 -12.11 Q 172.15 -12.57 172.38 -12.74 L 172.38 -12.74 Q 173.32 -13.43 174.16 -13.43 Q 174.99 -13.43 175.5 -12.96 Q 176.02 -12.5 176.02 -11.94 L 176.02 -11.94 L 176.02 -11.7 Q 176.02 -11.28 175.69 -10.86 Q 175.36 -10.44 174.79 -10.44 L 174.79 -10.44 Q 174.68 -10.44 173.94 -10.73 Q 173.2 -11.02 172.74 -11.02 Q 172.28 -11.02 171.72 -10.58 Q 171.15 -10.15 170.75 -9.18 Q 170.35 -8.2 170.35 -5.83 Q 170.35 -3.46 170.65 -2.79 Q 170.95 -2.12 171.71 -1.43 Q 172.47 -0.73 172.47 -0.63 L 172.47 -0.63 Q 172.47 0 168.16 0 L 168.16 0 L 167.55 0 L 166.95 0.01 Z M 179.58 -1.65 Q 177.82 -3.47 177.82 -6.49 Q 177.82 -9.51 179.56 -11.59 L 179.56 -11.59 Q 180.5 -12.71 181.79 -13.27 Q 183.09 -13.83 184.32 -13.83 L 184.32 -13.83 L 184.95 -13.83 Q 186.78 -13.83 188.2 -12.55 L 188.2 -12.55 Q 188.91 -11.92 189.34 -10.95 Q 189.77 -9.98 189.77 -9.29 L 189.77 -9.29 L 189.77 -9.01 Q 189.77 -7.85 188.32 -7.53 L 188.32 -7.53 Q 187.51 -7.35 184.94 -7.23 Q 182.37 -7.1 181.88 -6.9 L 181.88 -6.9 Q 181.1 -6.58 181.1 -5.29 Q 181.1 -4 182.23 -2.92 Q 183.35 -1.83 184.72 -1.83 Q 186.08 -1.83 187.59 -2.48 Q 189.1 -3.12 189.36 -3.12 Q 189.62 -3.12 189.62 -2.67 L 189.62 -2.67 Q 189.62 -1.8 187.5 -0.64 L 187.5 -0.64 Q 185.99 0.18 184.26 0.18 L 184.26 0.18 L 183.94 0.18 Q 181.35 0.18 179.58 -1.65 Z M 181.04 -9.21 L 181.04 -8.98 Q 181.04 -8.47 182.89 -8.47 L 182.89 -8.47 L 183.22 -8.47 L 183.31 -8.48 L 185.52 -8.57 L 185.86 -8.6 Q 186.83 -8.6 186.83 -9.35 L 186.83 -9.35 L 186.83 -9.43 L 186.81 -9.51 Q 186.81 -10.58 186.04 -11.46 Q 185.27 -12.33 184.04 -12.33 L 184.04 -12.33 L 183.96 -12.33 Q 182.74 -12.33 181.89 -11.37 Q 181.04 -10.4 181.04 -9.21 L 181.04 -9.21 Z M 192.39 -3.11 L 192.39 -3.11 L 192.39 -3.43 Q 192.39 -6.47 197.83 -7.81 L 197.83 -7.81 Q 199.06 -8.12 199.39 -8.32 L 199.39 -8.32 Q 200.11 -8.76 200.11 -9.81 Q 200.11 -10.85 199.56 -11.48 Q 199 -12.1 197.83 -12.1 Q 196.67 -12.1 195.68 -10.91 Q 194.69 -9.71 193.96 -9.71 L 193.96 -9.71 Q 193.05 -9.71 193.05 -10.65 L 193.05 -10.65 Q 193.05 -11.89 194.75 -12.85 Q 196.45 -13.81 198.24 -13.81 Q 200.04 -13.81 201 -13.31 Q 201.96 -12.8 202.53 -11.89 Q 203.1 -10.99 203.1 -7.17 Q 203.1 -3.35 203.33 -2.77 Q 203.55 -2.18 204.11 -2.02 L 204.11 -2.02 Q 205.12 -1.73 205.12 -1.51 L 205.12 -1.51 Q 205.12 -1.01 204.25 -0.49 Q 203.38 0.03 202.52 0.03 Q 201.67 0.03 200.99 -0.55 Q 200.32 -1.13 200.13 -1.13 Q 199.95 -1.13 198.57 -0.45 Q 197.18 0.22 195.78 0.22 Q 194.37 0.22 193.38 -0.8 Q 192.39 -1.82 192.39 -3.11 Z M 195.32 -3.75 L 195.32 -3.33 Q 195.32 -2.68 195.8 -2.13 Q 196.27 -1.58 197.07 -1.58 L 197.07 -1.58 L 197.24 -1.58 L 197.31 -1.6 Q 198.3 -1.6 199.19 -2.37 L 199.19 -2.37 Q 200.07 -3.15 200.07 -3.97 L 200.07 -3.97 Q 200.13 -4.26 200.13 -4.47 L 200.13 -4.47 L 200.14 -4.64 L 200.17 -5.33 L 200.17 -6.09 Q 200.17 -6.83 199.7 -6.83 L 199.7 -6.83 L 199.63 -6.81 L 199.56 -6.81 Q 198.4 -6.81 196.55 -5.79 L 196.55 -5.79 Q 195.32 -5.1 195.32 -3.75 L 195.32 -3.75 Z M 207.16 -1.05 L 207.16 -1.05 Q 207.16 -1.35 207.88 -1.82 Q 208.61 -2.29 208.76 -2.9 Q 208.92 -3.52 208.92 -6.68 Q 208.92 -9.84 208.71 -10.75 Q 208.51 -11.66 208.24 -11.94 L 208.24 -11.94 Q 207.64 -12.57 207.64 -12.72 Q 207.64 -12.88 208.18 -13.17 Q 208.73 -13.46 210.11 -13.46 Q 211.49 -13.46 211.77 -13.25 Q 212.05 -13.04 212.26 -12.38 Q 212.48 -11.72 212.78 -11.72 L 212.78 -11.72 Q 212.9 -11.72 213.62 -12.14 L 213.62 -12.14 Q 215.57 -13.3 217.4 -13.3 L 217.4 -13.3 Q 219.21 -13.3 220.12 -11.87 L 220.12 -11.87 Q 220.74 -10.9 220.74 -7.8 Q 220.74 -4.7 220.99 -3.79 Q 221.25 -2.87 221.62 -2.56 L 221.62 -2.56 Q 222.52 -1.79 222.52 -1.61 L 222.52 -1.61 Q 222.52 -1.01 221.3 -0.7 Q 220.08 -0.4 218.69 -0.4 Q 217.29 -0.4 217.29 -0.67 L 217.29 -0.67 Q 217.29 -0.81 217.46 -1.12 Q 217.62 -1.44 217.73 -1.77 Q 217.85 -2.11 217.85 -2.97 Q 217.85 -3.82 217.87 -4.25 L 217.87 -4.25 L 217.87 -5.58 Q 217.87 -9.11 217.11 -10.39 Q 216.36 -11.67 214.63 -11.67 L 214.63 -11.67 Q 214.04 -11.67 213.35 -11.32 Q 212.65 -10.96 212.26 -10.29 Q 211.86 -9.62 211.86 -6.67 Q 211.86 -3.71 212.05 -2.71 Q 212.24 -1.71 212.78 -1.08 L 212.78 -1.08 Q 212.93 -0.88 212.93 -0.69 L 212.93 -0.69 Q 212.93 -0.1 210.76 -0.1 L 210.76 -0.1 L 210.34 -0.12 L 209.93 -0.12 Q 208.1 -0.12 207.63 -0.3 Q 207.16 -0.48 207.16 -1.05 Z" stroke-linecap="round" />
</g>
</svg>